<svg width="16" height="17" viewBox="0 0 16 17" fill="none" xmlns="http://www.w3.org/2000/svg">
<path fill-rule="evenodd" clip-rule="evenodd" d="M5.17441 2.8C5.17441 2.13726 5.71167 1.6 6.37441 1.6H8.94352C9.60626 1.6 10.1435 2.13726 10.1435 2.8V4.72308H5.17441V2.8ZM11.7435 2.8V4.72308H14.447H15.3179L15.2442 5.59083L14.3683 15.8957L14.3061 16.628H13.5712H1.74676H1.01188L0.949638 15.8957L0.073756 5.59083L0 4.72308H0.870882H3.57441V2.8C3.57441 1.2536 4.82801 0 6.37441 0H8.94352C10.4899 0 11.7435 1.2536 11.7435 2.8ZM2.48165 15.028L1.74176 6.32308H4.37441H10.9435H13.5762L12.8363 15.028H2.48165ZM4.39551 9.3103L10.9461 9.3103V7.8103L4.39551 7.8103V9.3103Z" fill="#F9F9F9"/>
</svg>
