<svg width="27" height="29" viewBox="0 0 27 29" fill="none" xmlns="http://www.w3.org/2000/svg">
<path fill-rule="evenodd" clip-rule="evenodd" d="M8.15547 2.8199C8.15547 2.15716 8.69273 1.6199 9.35547 1.6199H17.8707C18.5335 1.6199 19.0707 2.15715 19.0707 2.81989L19.0708 9.07557C19.0708 9.12523 19.0678 9.17418 19.0619 9.22225H8.16437C8.15851 9.17418 8.15549 9.12523 8.15549 9.07557L8.15547 2.8199ZM6.55927 9.22225C6.55676 9.17368 6.55549 9.12478 6.55549 9.07558L6.55547 2.8199C6.55547 1.2735 7.80907 0.0198975 9.35547 0.0198975H17.8707C19.4171 0.0198975 20.6707 1.27349 20.6707 2.81989L20.6708 9.07556C20.6708 9.12477 20.6695 9.17367 20.667 9.22225H26.6406L25.0029 28.9922H2.3577L0.640625 9.22225H6.55927ZM19.8804 15.6532H7.40039V14.6532H19.8804V15.6532Z" fill="#F9F9F9"/>
</svg>
