<svg width="32" height="32" viewBox="0 0 32 32" fill="none" xmlns="http://www.w3.org/2000/svg">
<g clip-path="url(#clip0_99_565)">
<path d="M9.66667 15V17.6667H23V15H9.66667ZM16.3333 3C8.97334 3 3 8.97334 3 16.3333C3 23.6933 8.97334 29.6667 16.3333 29.6667C23.6933 29.6667 29.6667 23.6933 29.6667 16.3333C29.6667 8.97334 23.6933 3 16.3333 3ZM16.3333 27C10.4533 27 5.66667 22.2133 5.66667 16.3333C5.66667 10.4533 10.4533 5.66667 16.3333 5.66667C22.2133 5.66667 27 10.4533 27 16.3333C27 22.2133 22.2133 27 16.3333 27Z" fill="#949494"/>
</g>
<defs>
<clipPath id="clip0_99_565">
<rect width="32" height="32" fill="white"/>
</clipPath>
</defs>
</svg>
