<svg width="28" height="30" viewBox="0 0 28 30" fill="none" xmlns="http://www.w3.org/2000/svg">
<path fill-rule="evenodd" clip-rule="evenodd" d="M8.50951 2.81886C8.50951 2.15612 9.04676 1.61886 9.70951 1.61886H17.7634C18.4262 1.61886 18.9634 2.15612 18.9634 2.81886V8.7185H8.50951V2.81886ZM20.5634 2.81886V8.7185H26.1922H27.0628L26.9893 9.586L25.3821 28.567L25.3201 29.2995H24.585H2.88794H2.15282L2.0908 28.567L0.48361 9.586L0.410156 8.7185H1.28076H6.90951V2.81886C6.90951 1.27246 8.16311 0.0188599 9.70951 0.0188599H17.7634C19.3098 0.0188599 20.5634 1.27246 20.5634 2.81886ZM3.62307 27.6995L2.15136 10.3185H7.70951H19.7634H25.3216L23.8498 27.6995H3.62307ZM7.74853 15.8631L19.7685 15.8631L19.7685 14.3631L7.74853 14.3631V15.8631Z" fill="#F9F9F9"/>
</svg>
