<svg width="15" height="18" viewBox="0 0 15 18" fill="none" xmlns="http://www.w3.org/2000/svg">
<path fill-rule="evenodd" clip-rule="evenodd" d="M4.67395 2.8C4.67395 2.13726 5.21121 1.6 5.87395 1.6H9.0943C9.75704 1.6 10.2943 2.13726 10.2943 2.8L10.2943 4.71673C10.2943 5.09225 10.1218 5.42748 9.85176 5.64752H5.1165C4.84644 5.42748 4.67396 5.09225 4.67396 4.71674L4.67395 2.8ZM3.23238 5.64752C3.12978 5.35631 3.07396 5.04304 3.07396 4.71674L3.07395 2.80001C3.07395 1.25361 4.32755 0 5.87395 0H9.0943C10.6407 0 11.8943 1.2536 11.8943 2.79999L11.8943 4.71672C11.8943 5.04303 11.8385 5.35631 11.7359 5.64752H15L14.0551 17.0533H0.990617L0 5.64752H3.23238ZM11.0999 9.5692H3.89986V8.5692H11.0999L11.0999 9.5692Z" fill="#F9F9F9"/>
</svg>
