<svg width="18" height="29" viewBox="0 0 18 29" fill="none" xmlns="http://www.w3.org/2000/svg">
<path d="M5.43671 24.1172L12.4367 24.1172V22.5172L5.43671 22.5172V24.1172Z" fill="#F9F9F9"/>
<path fill-rule="evenodd" clip-rule="evenodd" d="M2.93672 0C1.39032 0 0.136719 1.2536 0.136719 2.8V28.6345H17.7367V2.8C17.7367 1.2536 16.4831 0 14.9367 0H2.93672ZM1.73672 2.8C1.73672 2.13726 2.27398 1.6 2.93672 1.6H14.9367C15.5995 1.6 16.1367 2.13726 16.1367 2.8V27.0345H1.73672V2.8Z" fill="#F9F9F9"/>
<path fill-rule="evenodd" clip-rule="evenodd" d="M9.43677 11.8H5.43677V10.2H9.43677V11.8ZM12.4368 17.8L5.43677 17.8V16.2L12.4368 16.2V17.8Z" fill="#F9F9F9"/>
</svg>
