<svg width="25" height="29" viewBox="0 0 25 29" fill="none" xmlns="http://www.w3.org/2000/svg">
<path d="M9.28623 23.9564L15.9764 23.9564V22.3564L9.28623 22.3564V23.9564Z" fill="#F9F9F9"/>
<path fill-rule="evenodd" clip-rule="evenodd" d="M18.2779 28.8846C19.8243 28.8846 21.0779 27.631 21.0779 26.0846L21.0779 12.0299H24.3403L19.3798 0L5.90628 7.29458e-07L0.394531 12.0299L4.18612 12.0299L4.18612 26.0846C4.18612 27.631 5.43972 28.8846 6.98612 28.8846H18.2779ZM5.78612 12.0299L19.4779 12.0299L19.4779 26.0846C19.4779 26.7473 18.9407 27.2846 18.2779 27.2846L6.98612 27.2846C6.32338 27.2846 5.78612 26.7473 5.78612 26.0846L5.78612 12.0299ZM2.88755 10.4299L6.93315 1.6L18.3088 1.6L21.9499 10.4299H2.88755Z" fill="#F9F9F9"/>
</svg>
