<svg width="30" height="30" viewBox="0 0 30 30" fill="none" xmlns="http://www.w3.org/2000/svg">
<g clip-path="url(#clip0_13_2)">
<path d="M15 20.625C15.4973 20.6288 15.9757 20.4347 16.3299 20.0858C16.6842 19.7368 16.8853 19.2613 16.8891 18.7641C16.8928 18.2668 16.6988 17.7884 16.3498 17.4341C16.0008 17.0798 15.5254 16.8787 15.0281 16.875C15.2588 16.8658 15.4868 16.8228 15.705 16.7475C16.4656 16.5163 17.1929 16.1873 17.8687 15.7688C19.0256 15.0488 20.625 13.6125 20.625 11.25C20.625 9.75816 20.0323 8.32742 18.9774 7.27253C17.9226 6.21763 16.4918 5.625 15 5.625C13.5082 5.625 12.0774 6.21763 11.0225 7.27253C9.96763 8.32742 9.375 9.75816 9.375 11.25C9.375 11.7473 9.57255 12.2242 9.92417 12.5758C10.2758 12.9275 10.7527 13.125 11.25 13.125C11.7473 13.125 12.2242 12.9275 12.5758 12.5758C12.9274 12.2242 13.125 11.7473 13.125 11.25C13.125 10.7527 13.3226 10.2758 13.6742 9.92417C14.0258 9.57255 14.5027 9.375 15 9.375C15.4973 9.375 15.9742 9.57255 16.3258 9.92417C16.6775 10.2758 16.875 10.7527 16.875 11.25C16.875 11.7 16.5994 12.1406 15.8813 12.5906C15.4642 12.8468 15.0145 13.0454 14.5444 13.1813L14.5369 13.1831C14.0949 13.2938 13.7083 13.5616 13.4493 13.9365C13.1904 14.3114 13.0769 14.7678 13.1299 15.2204C13.183 15.6729 13.399 16.0907 13.7377 16.3955C14.0763 16.7004 14.5144 16.8715 14.97 16.8769C14.483 16.8957 14.0225 17.1034 13.686 17.4559C13.3495 17.8085 13.1635 18.2782 13.1674 18.7656C13.1713 19.2529 13.3648 19.7196 13.7069 20.0666C14.049 20.4137 14.5128 20.6139 15 20.625Z" fill="#707F8D"/>
<path d="M0 9.375C0 6.8886 0.98772 4.50403 2.74588 2.74588C4.50403 0.98772 6.8886 0 9.375 0H20.625C23.1114 0 25.4961 0.98772 27.2541 2.74588C29.0122 4.50403 30 6.8886 30 9.375V16.875C29.9996 18.9534 29.3089 20.973 28.0363 22.6163C26.7636 24.2595 24.981 25.4334 22.9688 25.9538C22.7284 26.0214 22.4769 26.0404 22.2293 26.0096C21.9816 25.9789 21.7423 25.899 21.5259 25.7745C21.3094 25.65 21.12 25.4837 20.9687 25.2851C20.8176 25.0864 20.7073 24.8595 20.6449 24.6178C20.5824 24.3761 20.5689 24.1243 20.6051 23.8774C20.6413 23.6303 20.7264 23.3929 20.8556 23.1793C20.9848 22.9656 21.1553 22.7798 21.3572 22.6329C21.5589 22.4859 21.7882 22.3809 22.0312 22.3238C23.2387 22.0114 24.3083 21.3066 25.0719 20.3205C25.8354 19.3343 26.2498 18.1223 26.25 16.875V9.375C26.25 7.88316 25.6573 6.45242 24.6024 5.39753C23.5476 4.34263 22.1167 3.75 20.625 3.75H9.375C7.88316 3.75 6.45242 4.34263 5.39752 5.39753C4.34263 6.45242 3.75 7.88316 3.75 9.375V18.75C3.75 19.7445 4.14508 20.6983 4.84836 21.4016C5.55161 22.1049 6.50544 22.5 7.5 22.5C7.99729 22.5 8.47419 22.6976 8.82583 23.0492C9.17745 23.4008 9.375 23.8778 9.375 24.375V25.0913L14.1619 22.6988C14.3829 22.5795 14.6256 22.506 14.8756 22.4824C15.1256 22.4588 15.3778 22.4856 15.6172 22.5613C15.8566 22.6371 16.0784 22.7601 16.2694 22.9232C16.4603 23.0861 16.6166 23.286 16.7289 23.5106C16.8412 23.7353 16.9072 23.9799 16.9231 24.2306C16.9389 24.4813 16.9043 24.7324 16.8212 24.9694C16.7382 25.2064 16.6083 25.4243 16.4394 25.6101C16.2706 25.7959 16.0661 25.9459 15.8381 26.0513L8.33813 29.8013C8.05234 29.9441 7.73479 30.0114 7.41564 29.9972C7.09648 29.9828 6.78628 29.8871 6.51448 29.7191C6.2427 29.5511 6.01832 29.3166 5.86264 29.0376C5.70697 28.7586 5.62517 28.4445 5.625 28.125V26.0138C4.01509 25.5973 2.58908 24.6581 1.57093 23.3434C0.552795 22.0286 0.000221153 20.4129 0 18.75V9.375Z" fill="#707F8D"/>
</g>
<defs>
<clipPath id="clip0_13_2">
<rect width="30" height="30" fill="white"/>
</clipPath>
</defs>
</svg>
