<?xml version="1.0" encoding="UTF-8"?>
<svg id="Layer_1"  xmlns="http://www.w3.org/2000/svg" viewBox="0 0 18.33 18.33">
  <defs>
    <style>
      .cls-1 {
        fill: none;
        stroke: #606060;
        stroke-width: 1.5px;
      }

      .cls-2 {
        fill: #606060;
        fill-rule: evenodd;
      }
    </style>
  </defs>
  <path class="cls-2" d="M14.58,7.8c0,3.75-3.04,6.78-6.78,6.78S1.02,11.54,1.02,7.8,4.05,1.02,7.8,1.02s6.78,3.04,6.78,6.78Zm-1.64,5.86c-1.37,1.21-3.17,1.94-5.14,1.94C3.49,15.6,0,12.11,0,7.8S3.49,0,7.8,0s7.8,3.49,7.8,7.8c0,1.97-.73,3.77-1.94,5.14l4.67,4.67-.72,.72-4.67-4.67Z"/>
  <path class="cls-1" d="M2.7,7.19c0,2.5,1.41,4.64,3.43,5.58"/>
</svg>